<?xml version="1.0" encoding="utf-8" standalone="no"?>
<!DOCTYPE svg PUBLIC "-//W3C//DTD SVG 1.1//EN"
  "http://www.w3.org/Graphics/SVG/1.1/DTD/svg11.dtd">
<!-- Created with matplotlib (https://matplotlib.org/) -->
<svg height="288pt" version="1.1" viewBox="0 0 432 288" width="432pt" xmlns="http://www.w3.org/2000/svg" xmlns:xlink="http://www.w3.org/1999/xlink">
 <defs>
  <style type="text/css">
*{stroke-linecap:butt;stroke-linejoin:round;}
  </style>
 </defs>
 <g id="figure_1">
  <g id="patch_1">
   <path d="M 0 288 
L 432 288 
L 432 0 
L 0 0 
z
" style="fill:#ffffff;"/>
  </g>
  <g id="axes_1">
   <g id="patch_2">
    <path d="M 54 230.4 
L 388.8 230.4 
L 388.8 34.56 
L 54 34.56 
z
" style="fill:#ffffff;"/>
   </g>
   <g id="matplotlib.axis_1">
    <g id="xtick_1">
     <g id="line2d_1">
      <defs>
       <path d="M 0 0 
L 0 3.5 
" id="me09ff84dba" style="stroke:#000000;stroke-width:0.8;"/>
      </defs>
      <g>
       <use style="stroke:#000000;stroke-width:0.8;" x="84.480347" xlink:href="#me09ff84dba" y="230.4"/>
      </g>
     </g>
     <g id="text_1">
      <!-- 2002 -->
      <defs>
       <path d="M 19.1875 8.296875 
L 53.609375 8.296875 
L 53.609375 0 
L 7.328125 0 
L 7.328125 8.296875 
Q 12.9375 14.109375 22.625 23.890625 
Q 32.328125 33.6875 34.8125 36.53125 
Q 39.546875 41.84375 41.421875 45.53125 
Q 43.3125 49.21875 43.3125 52.78125 
Q 43.3125 58.59375 39.234375 62.25 
Q 35.15625 65.921875 28.609375 65.921875 
Q 23.96875 65.921875 18.8125 64.3125 
Q 13.671875 62.703125 7.8125 59.421875 
L 7.8125 69.390625 
Q 13.765625 71.78125 18.9375 73 
Q 24.125 74.21875 28.421875 74.21875 
Q 39.75 74.21875 46.484375 68.546875 
Q 53.21875 62.890625 53.21875 53.421875 
Q 53.21875 48.921875 51.53125 44.890625 
Q 49.859375 40.875 45.40625 35.40625 
Q 44.1875 33.984375 37.640625 27.21875 
Q 31.109375 20.453125 19.1875 8.296875 
z
" id="DejaVuSans-50"/>
       <path d="M 31.78125 66.40625 
Q 24.171875 66.40625 20.328125 58.90625 
Q 16.5 51.421875 16.5 36.375 
Q 16.5 21.390625 20.328125 13.890625 
Q 24.171875 6.390625 31.78125 6.390625 
Q 39.453125 6.390625 43.28125 13.890625 
Q 47.125 21.390625 47.125 36.375 
Q 47.125 51.421875 43.28125 58.90625 
Q 39.453125 66.40625 31.78125 66.40625 
z
M 31.78125 74.21875 
Q 44.046875 74.21875 50.515625 64.515625 
Q 56.984375 54.828125 56.984375 36.375 
Q 56.984375 17.96875 50.515625 8.265625 
Q 44.046875 -1.421875 31.78125 -1.421875 
Q 19.53125 -1.421875 13.0625 8.265625 
Q 6.59375 17.96875 6.59375 36.375 
Q 6.59375 54.828125 13.0625 64.515625 
Q 19.53125 74.21875 31.78125 74.21875 
z
" id="DejaVuSans-48"/>
      </defs>
      <g transform="translate(61.400157 256.70544)rotate(-30)scale(0.1 -0.1)">
       <use xlink:href="#DejaVuSans-50"/>
       <use x="63.623047" xlink:href="#DejaVuSans-48"/>
       <use x="127.246094" xlink:href="#DejaVuSans-48"/>
       <use x="190.869141" xlink:href="#DejaVuSans-50"/>
      </g>
     </g>
    </g>
    <g id="xtick_2">
     <g id="line2d_2">
      <g>
       <use style="stroke:#000000;stroke-width:0.8;" x="116.588071" xlink:href="#me09ff84dba" y="230.4"/>
      </g>
     </g>
     <g id="text_2">
      <!-- 2004 -->
      <defs>
       <path d="M 37.796875 64.3125 
L 12.890625 25.390625 
L 37.796875 25.390625 
z
M 35.203125 72.90625 
L 47.609375 72.90625 
L 47.609375 25.390625 
L 58.015625 25.390625 
L 58.015625 17.1875 
L 47.609375 17.1875 
L 47.609375 0 
L 37.796875 0 
L 37.796875 17.1875 
L 4.890625 17.1875 
L 4.890625 26.703125 
z
" id="DejaVuSans-52"/>
      </defs>
      <g transform="translate(93.507881 256.70544)rotate(-30)scale(0.1 -0.1)">
       <use xlink:href="#DejaVuSans-50"/>
       <use x="63.623047" xlink:href="#DejaVuSans-48"/>
       <use x="127.246094" xlink:href="#DejaVuSans-48"/>
       <use x="190.869141" xlink:href="#DejaVuSans-52"/>
      </g>
     </g>
    </g>
    <g id="xtick_3">
     <g id="line2d_3">
      <g>
       <use style="stroke:#000000;stroke-width:0.8;" x="148.739779" xlink:href="#me09ff84dba" y="230.4"/>
      </g>
     </g>
     <g id="text_3">
      <!-- 2006 -->
      <defs>
       <path d="M 33.015625 40.375 
Q 26.375 40.375 22.484375 35.828125 
Q 18.609375 31.296875 18.609375 23.390625 
Q 18.609375 15.53125 22.484375 10.953125 
Q 26.375 6.390625 33.015625 6.390625 
Q 39.65625 6.390625 43.53125 10.953125 
Q 47.40625 15.53125 47.40625 23.390625 
Q 47.40625 31.296875 43.53125 35.828125 
Q 39.65625 40.375 33.015625 40.375 
z
M 52.59375 71.296875 
L 52.59375 62.3125 
Q 48.875 64.0625 45.09375 64.984375 
Q 41.3125 65.921875 37.59375 65.921875 
Q 27.828125 65.921875 22.671875 59.328125 
Q 17.53125 52.734375 16.796875 39.40625 
Q 19.671875 43.65625 24.015625 45.921875 
Q 28.375 48.1875 33.59375 48.1875 
Q 44.578125 48.1875 50.953125 41.515625 
Q 57.328125 34.859375 57.328125 23.390625 
Q 57.328125 12.15625 50.6875 5.359375 
Q 44.046875 -1.421875 33.015625 -1.421875 
Q 20.359375 -1.421875 13.671875 8.265625 
Q 6.984375 17.96875 6.984375 36.375 
Q 6.984375 53.65625 15.1875 63.9375 
Q 23.390625 74.21875 37.203125 74.21875 
Q 40.921875 74.21875 44.703125 73.484375 
Q 48.484375 72.75 52.59375 71.296875 
z
" id="DejaVuSans-54"/>
      </defs>
      <g transform="translate(125.659589 256.70544)rotate(-30)scale(0.1 -0.1)">
       <use xlink:href="#DejaVuSans-50"/>
       <use x="63.623047" xlink:href="#DejaVuSans-48"/>
       <use x="127.246094" xlink:href="#DejaVuSans-48"/>
       <use x="190.869141" xlink:href="#DejaVuSans-54"/>
      </g>
     </g>
    </g>
    <g id="xtick_4">
     <g id="line2d_4">
      <g>
       <use style="stroke:#000000;stroke-width:0.8;" x="180.847504" xlink:href="#me09ff84dba" y="230.4"/>
      </g>
     </g>
     <g id="text_4">
      <!-- 2008 -->
      <defs>
       <path d="M 31.78125 34.625 
Q 24.75 34.625 20.71875 30.859375 
Q 16.703125 27.09375 16.703125 20.515625 
Q 16.703125 13.921875 20.71875 10.15625 
Q 24.75 6.390625 31.78125 6.390625 
Q 38.8125 6.390625 42.859375 10.171875 
Q 46.921875 13.96875 46.921875 20.515625 
Q 46.921875 27.09375 42.890625 30.859375 
Q 38.875 34.625 31.78125 34.625 
z
M 21.921875 38.8125 
Q 15.578125 40.375 12.03125 44.71875 
Q 8.5 49.078125 8.5 55.328125 
Q 8.5 64.0625 14.71875 69.140625 
Q 20.953125 74.21875 31.78125 74.21875 
Q 42.671875 74.21875 48.875 69.140625 
Q 55.078125 64.0625 55.078125 55.328125 
Q 55.078125 49.078125 51.53125 44.71875 
Q 48 40.375 41.703125 38.8125 
Q 48.828125 37.15625 52.796875 32.3125 
Q 56.78125 27.484375 56.78125 20.515625 
Q 56.78125 9.90625 50.3125 4.234375 
Q 43.84375 -1.421875 31.78125 -1.421875 
Q 19.734375 -1.421875 13.25 4.234375 
Q 6.78125 9.90625 6.78125 20.515625 
Q 6.78125 27.484375 10.78125 32.3125 
Q 14.796875 37.15625 21.921875 38.8125 
z
M 18.3125 54.390625 
Q 18.3125 48.734375 21.84375 45.5625 
Q 25.390625 42.390625 31.78125 42.390625 
Q 38.140625 42.390625 41.71875 45.5625 
Q 45.3125 48.734375 45.3125 54.390625 
Q 45.3125 60.0625 41.71875 63.234375 
Q 38.140625 66.40625 31.78125 66.40625 
Q 25.390625 66.40625 21.84375 63.234375 
Q 18.3125 60.0625 18.3125 54.390625 
z
" id="DejaVuSans-56"/>
      </defs>
      <g transform="translate(157.767314 256.70544)rotate(-30)scale(0.1 -0.1)">
       <use xlink:href="#DejaVuSans-50"/>
       <use x="63.623047" xlink:href="#DejaVuSans-48"/>
       <use x="127.246094" xlink:href="#DejaVuSans-48"/>
       <use x="190.869141" xlink:href="#DejaVuSans-56"/>
      </g>
     </g>
    </g>
    <g id="xtick_5">
     <g id="line2d_5">
      <g>
       <use style="stroke:#000000;stroke-width:0.8;" x="212.999212" xlink:href="#me09ff84dba" y="230.4"/>
      </g>
     </g>
     <g id="text_5">
      <!-- 2010 -->
      <defs>
       <path d="M 12.40625 8.296875 
L 28.515625 8.296875 
L 28.515625 63.921875 
L 10.984375 60.40625 
L 10.984375 69.390625 
L 28.421875 72.90625 
L 38.28125 72.90625 
L 38.28125 8.296875 
L 54.390625 8.296875 
L 54.390625 0 
L 12.40625 0 
z
" id="DejaVuSans-49"/>
      </defs>
      <g transform="translate(189.919021 256.70544)rotate(-30)scale(0.1 -0.1)">
       <use xlink:href="#DejaVuSans-50"/>
       <use x="63.623047" xlink:href="#DejaVuSans-48"/>
       <use x="127.246094" xlink:href="#DejaVuSans-49"/>
       <use x="190.869141" xlink:href="#DejaVuSans-48"/>
      </g>
     </g>
    </g>
    <g id="xtick_6">
     <g id="line2d_6">
      <g>
       <use style="stroke:#000000;stroke-width:0.8;" x="245.106936" xlink:href="#me09ff84dba" y="230.4"/>
      </g>
     </g>
     <g id="text_6">
      <!-- 2012 -->
      <g transform="translate(222.026746 256.70544)rotate(-30)scale(0.1 -0.1)">
       <use xlink:href="#DejaVuSans-50"/>
       <use x="63.623047" xlink:href="#DejaVuSans-48"/>
       <use x="127.246094" xlink:href="#DejaVuSans-49"/>
       <use x="190.869141" xlink:href="#DejaVuSans-50"/>
      </g>
     </g>
    </g>
    <g id="xtick_7">
     <g id="line2d_7">
      <g>
       <use style="stroke:#000000;stroke-width:0.8;" x="277.258644" xlink:href="#me09ff84dba" y="230.4"/>
      </g>
     </g>
     <g id="text_7">
      <!-- 2014 -->
      <g transform="translate(254.178454 256.70544)rotate(-30)scale(0.1 -0.1)">
       <use xlink:href="#DejaVuSans-50"/>
       <use x="63.623047" xlink:href="#DejaVuSans-48"/>
       <use x="127.246094" xlink:href="#DejaVuSans-49"/>
       <use x="190.869141" xlink:href="#DejaVuSans-52"/>
      </g>
     </g>
    </g>
    <g id="xtick_8">
     <g id="line2d_8">
      <g>
       <use style="stroke:#000000;stroke-width:0.8;" x="309.366369" xlink:href="#me09ff84dba" y="230.4"/>
      </g>
     </g>
     <g id="text_8">
      <!-- 2016 -->
      <g transform="translate(286.286179 256.70544)rotate(-30)scale(0.1 -0.1)">
       <use xlink:href="#DejaVuSans-50"/>
       <use x="63.623047" xlink:href="#DejaVuSans-48"/>
       <use x="127.246094" xlink:href="#DejaVuSans-49"/>
       <use x="190.869141" xlink:href="#DejaVuSans-54"/>
      </g>
     </g>
    </g>
    <g id="xtick_9">
     <g id="line2d_9">
      <g>
       <use style="stroke:#000000;stroke-width:0.8;" x="341.518077" xlink:href="#me09ff84dba" y="230.4"/>
      </g>
     </g>
     <g id="text_9">
      <!-- 2018 -->
      <g transform="translate(318.437886 256.70544)rotate(-30)scale(0.1 -0.1)">
       <use xlink:href="#DejaVuSans-50"/>
       <use x="63.623047" xlink:href="#DejaVuSans-48"/>
       <use x="127.246094" xlink:href="#DejaVuSans-49"/>
       <use x="190.869141" xlink:href="#DejaVuSans-56"/>
      </g>
     </g>
    </g>
    <g id="xtick_10">
     <g id="line2d_10">
      <g>
       <use style="stroke:#000000;stroke-width:0.8;" x="373.625801" xlink:href="#me09ff84dba" y="230.4"/>
      </g>
     </g>
     <g id="text_10">
      <!-- 2020 -->
      <g transform="translate(350.545611 256.70544)rotate(-30)scale(0.1 -0.1)">
       <use xlink:href="#DejaVuSans-50"/>
       <use x="63.623047" xlink:href="#DejaVuSans-48"/>
       <use x="127.246094" xlink:href="#DejaVuSans-50"/>
       <use x="190.869141" xlink:href="#DejaVuSans-48"/>
      </g>
     </g>
    </g>
   </g>
   <g id="matplotlib.axis_2">
    <g id="ytick_1">
     <g id="line2d_11">
      <defs>
       <path d="M 0 0 
L -3.5 0 
" id="mbe6a746041" style="stroke:#000000;stroke-width:0.8;"/>
      </defs>
      <g>
       <use style="stroke:#000000;stroke-width:0.8;" x="54" xlink:href="#mbe6a746041" y="223.064645"/>
      </g>
     </g>
     <g id="text_11">
      <!-- −0.125 -->
      <defs>
       <path d="M 10.59375 35.5 
L 73.1875 35.5 
L 73.1875 27.203125 
L 10.59375 27.203125 
z
" id="DejaVuSans-8722"/>
       <path d="M 10.6875 12.40625 
L 21 12.40625 
L 21 0 
L 10.6875 0 
z
" id="DejaVuSans-46"/>
       <path d="M 10.796875 72.90625 
L 49.515625 72.90625 
L 49.515625 64.59375 
L 19.828125 64.59375 
L 19.828125 46.734375 
Q 21.96875 47.46875 24.109375 47.828125 
Q 26.265625 48.1875 28.421875 48.1875 
Q 40.625 48.1875 47.75 41.5 
Q 54.890625 34.8125 54.890625 23.390625 
Q 54.890625 11.625 47.5625 5.09375 
Q 40.234375 -1.421875 26.90625 -1.421875 
Q 22.3125 -1.421875 17.546875 -0.640625 
Q 12.796875 0.140625 7.71875 1.703125 
L 7.71875 11.625 
Q 12.109375 9.234375 16.796875 8.0625 
Q 21.484375 6.890625 26.703125 6.890625 
Q 35.15625 6.890625 40.078125 11.328125 
Q 45.015625 15.765625 45.015625 23.390625 
Q 45.015625 31 40.078125 35.4375 
Q 35.15625 39.890625 26.703125 39.890625 
Q 22.75 39.890625 18.8125 39.015625 
Q 14.890625 38.140625 10.796875 36.28125 
z
" id="DejaVuSans-53"/>
      </defs>
      <g transform="translate(9.992188 226.863864)scale(0.1 -0.1)">
       <use xlink:href="#DejaVuSans-8722"/>
       <use x="83.789062" xlink:href="#DejaVuSans-48"/>
       <use x="147.412109" xlink:href="#DejaVuSans-46"/>
       <use x="179.199219" xlink:href="#DejaVuSans-49"/>
       <use x="242.822266" xlink:href="#DejaVuSans-50"/>
       <use x="306.445312" xlink:href="#DejaVuSans-53"/>
      </g>
     </g>
    </g>
    <g id="ytick_2">
     <g id="line2d_12">
      <g>
       <use style="stroke:#000000;stroke-width:0.8;" x="54" xlink:href="#mbe6a746041" y="196.454897"/>
      </g>
     </g>
     <g id="text_12">
      <!-- −0.100 -->
      <g transform="translate(9.992188 200.254116)scale(0.1 -0.1)">
       <use xlink:href="#DejaVuSans-8722"/>
       <use x="83.789062" xlink:href="#DejaVuSans-48"/>
       <use x="147.412109" xlink:href="#DejaVuSans-46"/>
       <use x="179.199219" xlink:href="#DejaVuSans-49"/>
       <use x="242.822266" xlink:href="#DejaVuSans-48"/>
       <use x="306.445312" xlink:href="#DejaVuSans-48"/>
      </g>
     </g>
    </g>
    <g id="ytick_3">
     <g id="line2d_13">
      <g>
       <use style="stroke:#000000;stroke-width:0.8;" x="54" xlink:href="#mbe6a746041" y="169.845149"/>
      </g>
     </g>
     <g id="text_13">
      <!-- −0.075 -->
      <defs>
       <path d="M 8.203125 72.90625 
L 55.078125 72.90625 
L 55.078125 68.703125 
L 28.609375 0 
L 18.3125 0 
L 43.21875 64.59375 
L 8.203125 64.59375 
z
" id="DejaVuSans-55"/>
      </defs>
      <g transform="translate(9.992188 173.644367)scale(0.1 -0.1)">
       <use xlink:href="#DejaVuSans-8722"/>
       <use x="83.789062" xlink:href="#DejaVuSans-48"/>
       <use x="147.412109" xlink:href="#DejaVuSans-46"/>
       <use x="179.199219" xlink:href="#DejaVuSans-48"/>
       <use x="242.822266" xlink:href="#DejaVuSans-55"/>
       <use x="306.445312" xlink:href="#DejaVuSans-53"/>
      </g>
     </g>
    </g>
    <g id="ytick_4">
     <g id="line2d_14">
      <g>
       <use style="stroke:#000000;stroke-width:0.8;" x="54" xlink:href="#mbe6a746041" y="143.2354"/>
      </g>
     </g>
     <g id="text_14">
      <!-- −0.050 -->
      <g transform="translate(9.992188 147.034619)scale(0.1 -0.1)">
       <use xlink:href="#DejaVuSans-8722"/>
       <use x="83.789062" xlink:href="#DejaVuSans-48"/>
       <use x="147.412109" xlink:href="#DejaVuSans-46"/>
       <use x="179.199219" xlink:href="#DejaVuSans-48"/>
       <use x="242.822266" xlink:href="#DejaVuSans-53"/>
       <use x="306.445312" xlink:href="#DejaVuSans-48"/>
      </g>
     </g>
    </g>
    <g id="ytick_5">
     <g id="line2d_15">
      <g>
       <use style="stroke:#000000;stroke-width:0.8;" x="54" xlink:href="#mbe6a746041" y="116.625652"/>
      </g>
     </g>
     <g id="text_15">
      <!-- −0.025 -->
      <g transform="translate(9.992188 120.42487)scale(0.1 -0.1)">
       <use xlink:href="#DejaVuSans-8722"/>
       <use x="83.789062" xlink:href="#DejaVuSans-48"/>
       <use x="147.412109" xlink:href="#DejaVuSans-46"/>
       <use x="179.199219" xlink:href="#DejaVuSans-48"/>
       <use x="242.822266" xlink:href="#DejaVuSans-50"/>
       <use x="306.445312" xlink:href="#DejaVuSans-53"/>
      </g>
     </g>
    </g>
    <g id="ytick_6">
     <g id="line2d_16">
      <g>
       <use style="stroke:#000000;stroke-width:0.8;" x="54" xlink:href="#mbe6a746041" y="90.015903"/>
      </g>
     </g>
     <g id="text_16">
      <!-- 0.000 -->
      <g transform="translate(18.371875 93.815122)scale(0.1 -0.1)">
       <use xlink:href="#DejaVuSans-48"/>
       <use x="63.623047" xlink:href="#DejaVuSans-46"/>
       <use x="95.410156" xlink:href="#DejaVuSans-48"/>
       <use x="159.033203" xlink:href="#DejaVuSans-48"/>
       <use x="222.65625" xlink:href="#DejaVuSans-48"/>
      </g>
     </g>
    </g>
    <g id="ytick_7">
     <g id="line2d_17">
      <g>
       <use style="stroke:#000000;stroke-width:0.8;" x="54" xlink:href="#mbe6a746041" y="63.406155"/>
      </g>
     </g>
     <g id="text_17">
      <!-- 0.025 -->
      <g transform="translate(18.371875 67.205374)scale(0.1 -0.1)">
       <use xlink:href="#DejaVuSans-48"/>
       <use x="63.623047" xlink:href="#DejaVuSans-46"/>
       <use x="95.410156" xlink:href="#DejaVuSans-48"/>
       <use x="159.033203" xlink:href="#DejaVuSans-50"/>
       <use x="222.65625" xlink:href="#DejaVuSans-53"/>
      </g>
     </g>
    </g>
    <g id="ytick_8">
     <g id="line2d_18">
      <g>
       <use style="stroke:#000000;stroke-width:0.8;" x="54" xlink:href="#mbe6a746041" y="36.796406"/>
      </g>
     </g>
     <g id="text_18">
      <!-- 0.050 -->
      <g transform="translate(18.371875 40.595625)scale(0.1 -0.1)">
       <use xlink:href="#DejaVuSans-48"/>
       <use x="63.623047" xlink:href="#DejaVuSans-46"/>
       <use x="95.410156" xlink:href="#DejaVuSans-48"/>
       <use x="159.033203" xlink:href="#DejaVuSans-53"/>
       <use x="222.65625" xlink:href="#DejaVuSans-48"/>
      </g>
     </g>
    </g>
   </g>
   <g id="line2d_19">
    <path clip-path="url(#pd29988b9b9)" d="M 69.218182 95.389337 
L 70.977509 97.315706 
L 72.297005 87.065609 
L 73.660483 86.233624 
L 75.023962 77.357849 
L 76.299475 89.155259 
L 77.706936 93.892211 
L 79.070415 89.602589 
L 80.301944 101.373227 
L 81.753389 102.234205 
L 83.072885 84.890543 
L 84.436364 99.248472 
L 85.799842 110.877696 
L 87.031372 83.87772 
L 88.306884 84.505971 
L 89.714346 86.748432 
L 91.077824 93.660442 
L 92.309354 104.962926 
L 93.760799 88.02335 
L 95.080294 88.170527 
L 96.311823 93.03211 
L 97.807252 95.390669 
L 99.082764 103.243545 
L 100.490226 90.580173 
L 101.765738 86.256494 
L 103.085234 88.213991 
L 104.448713 98.052717 
L 105.768208 115.475316 
L 107.087704 97.974089 
L 108.451182 91.773711 
L 109.814661 100.4808 
L 111.090173 88.227794 
L 112.497635 96.715944 
L 113.861114 111.102506 
L 115.092643 96.726198 
L 116.544088 114.470264 
L 117.863584 87.843759 
L 119.095113 84.591884 
L 120.546558 86.827443 
L 121.866054 99.773453 
L 123.229532 85.830554 
L 125.868523 111.075009 
L 127.275985 91.534038 
L 128.595481 98.221177 
L 129.870993 106.919234 
L 131.278455 76.354842 
L 132.641934 96.524102 
L 134.005413 89.108394 
L 135.236942 92.820665 
L 136.60042 102.302985 
L 137.875933 117.734867 
L 139.283395 77.382745 
L 140.60289 95.710116 
L 141.878403 109.372811 
L 143.329848 70.43704 
L 144.649343 90.883776 
L 146.012822 96.354788 
L 147.332317 83.336767 
L 148.651813 104.06806 
L 149.795376 106.990463 
L 151.290804 87.862219 
L 152.654283 104.09903 
L 153.885812 125.37485 
L 155.337257 88.180454 
L 158.020231 82.392123 
L 159.38371 93.866978 
L 160.659222 87.812018 
L 162.066684 99.835953 
L 163.38618 123.669015 
L 164.661692 115.667021 
L 166.113137 87.78789 
L 167.344666 72.441524 
L 168.664162 69.19059 
L 170.027641 100.673508 
L 171.391119 96.492312 
L 172.666632 149.454888 
L 174.074094 79.264851 
L 175.437572 100.036273 
L 176.669101 100.673632 
L 178.120547 113.506414 
L 179.440042 59.988659 
L 180.671571 101.285641 
L 182.166999 84.98569 
L 183.442512 78.319611 
L 184.805991 80.80114 
L 186.125486 124.503358 
L 187.444982 81.054364 
L 188.80846 99.254181 
L 190.171939 83.175955 
L 191.447451 99.116182 
L 192.678981 110.255903 
L 194.218392 91.347706 
L 195.449921 85.334346 
L 196.901366 85.04334 
L 197.91298 96.994207 
L 199.452391 88.358957 
L 200.859853 89.759563 
L 202.179348 89.066822 
L 203.366894 81.107946 
L 204.862323 90.224471 
L 206.225801 108.034875 
L 207.58928 89.420073 
L 208.908776 97.159008 
L 210.228271 94.313062 
L 211.59175 89.560784 
L 212.955229 89.245276 
L 214.230741 87.174209 
L 215.46227 83.767796 
L 216.913715 81.393624 
L 218.233211 98.512088 
L 219.596689 94.594379 
L 220.916185 94.734827 
L 222.235681 90.466122 
L 223.643142 83.156606 
L 224.962638 94.81615 
L 226.23815 112.250098 
L 227.645612 85.443705 
L 229.009091 92.676547 
L 230.37257 93.193465 
L 231.604099 89.287663 
L 232.967578 81.862295 
L 234.24309 93.980627 
L 235.650552 93.876548 
L 236.970047 91.807945 
L 238.24556 85.550377 
L 239.697005 93.521913 
L 241.0165 90.264959 
L 242.379979 99.429529 
L 243.699475 91.182992 
L 245.01897 114.594127 
L 246.426432 90.564622 
L 247.701944 84.154176 
L 249.02144 94.188481 
L 250.252969 93.4794 
L 251.748397 95.018982 
L 253.02391 92.510677 
L 254.431372 99.669078 
L 255.79485 72.850965 
L 257.026379 93.519773 
L 258.477824 84.216748 
L 259.79732 93.693315 
L 261.160799 107.862084 
L 262.524277 90.690598 
L 263.755807 88.041724 
L 265.031319 82.731938 
L 266.262848 97.697157 
L 267.80226 95.26319 
L 269.033789 96.758628 
L 270.485234 91.702937 
L 271.804729 90.85962 
L 273.168208 102.149251 
L 274.531687 88.295758 
L 275.807199 93.974199 
L 277.214661 95.333094 
L 278.534157 93.081779 
L 279.809669 85.843721 
L 281.173148 81.149568 
L 282.492643 94.630654 
L 283.812139 91.502001 
L 285.175617 86.96713 
L 286.539096 97.052856 
L 287.814609 84.335202 
L 289.22207 75.264991 
L 290.585549 99.251047 
L 291.817078 105.199984 
L 293.268523 139.646788 
L 294.588019 84.534877 
L 295.819548 93.215806 
L 297.22701 92.014012 
L 298.546506 91.229617 
L 299.822018 83.31895 
L 301.22948 101.069907 
L 302.592958 111.214721 
L 303.956437 87.899347 
L 305.275933 94.694202 
L 306.595428 88.6067 
L 307.958907 81.743306 
L 309.322386 80.13369 
L 310.597898 105.403717 
L 311.961377 88.646772 
L 313.324855 81.913689 
L 314.600368 74.96112 
L 316.00783 105.657087 
L 317.327325 91.512266 
L 318.602838 100.713869 
L 320.054283 85.209048 
L 321.373778 81.397229 
L 322.737257 88.608804 
L 324.056752 88.95964 
L 325.376248 77.936443 
L 326.563794 100.206514 
L 328.015239 90.384777 
L 329.378718 101.319026 
L 330.610247 109.341304 
L 332.061692 106.351742 
L 333.381188 96.885995 
L 334.744666 98.9436 
L 336.108145 89.433069 
L 337.383657 96.377495 
L 338.791119 100.47063 
L 340.110615 107.8391 
L 341.386127 98.238072 
L 342.837572 107.078327 
L 344.069101 97.673646 
L 345.388597 77.979531 
L 346.620126 101.588041 
L 348.115554 100.324088 
L 349.391067 105.242578 
L 350.798529 85.918445 
L 352.162007 92.159777 
L 353.393537 94.774415 
L 354.844982 89.26093 
L 356.164477 81.556984 
L 357.396006 95.862521 
L 358.891435 106.389369 
L 360.122964 82.631635 
L 361.398476 92.729621 
L 362.805938 97.651394 
L 364.169417 94.241961 
L 366.852391 96.601347 
L 368.171886 96.352446 
L 369.535365 91.077863 
L 370.898844 97.245871 
L 372.174356 92.533545 
L 373.581818 94.237937 
L 373.581818 94.237937 
" style="fill:none;stroke:#1f77b4;stroke-linecap:square;stroke-width:1.5;"/>
   </g>
   <g id="line2d_20">
    <path clip-path="url(#pd29988b9b9)" d="M 69.218182 68.250322 
L 70.977509 79.166596 
L 72.297005 104.642013 
L 73.660483 124.971631 
L 75.023962 115.412371 
L 76.299475 90.483838 
L 77.706936 107.892061 
L 79.070415 110.15561 
L 80.301944 90.487421 
L 81.753389 87.264375 
L 83.072885 83.61556 
L 84.436364 96.315326 
L 85.799842 103.805873 
L 87.031372 91.993476 
L 88.306884 102.131638 
L 89.714346 93.403987 
L 91.077824 103.00496 
L 92.309354 61.879162 
L 93.760799 103.307005 
L 95.080294 98.965814 
L 96.311823 99.145411 
L 97.807252 97.80792 
L 99.082764 95.554984 
L 100.490226 111.80239 
L 101.765738 86.317201 
L 103.085234 91.558589 
L 104.448713 90.464354 
L 105.768208 85.975467 
L 107.087704 92.543537 
L 108.451182 102.245993 
L 109.814661 101.110085 
L 111.090173 106.503465 
L 112.497635 93.442707 
L 113.861114 90.709539 
L 115.092643 77.325909 
L 116.544088 106.77516 
L 117.863584 94.400218 
L 119.095113 108.005899 
L 120.546558 94.586068 
L 121.866054 88.98752 
L 123.229532 102.794833 
L 124.549028 97.781056 
L 125.868523 101.001987 
L 127.275985 86.151916 
L 128.595481 100.421531 
L 129.870993 127.191706 
L 131.278455 93.226719 
L 132.641934 108.086709 
L 134.005413 104.487263 
L 135.236942 89.506027 
L 136.60042 110.40473 
L 137.875933 108.915936 
L 139.283395 84.663386 
L 140.60289 103.124155 
L 141.878403 119.190342 
L 143.329848 97.3697 
L 144.649343 122.622356 
L 146.012822 109.439661 
L 147.332317 84.690376 
L 148.651813 97.92185 
L 149.795376 81.261912 
L 151.290804 89.709266 
L 152.654283 106.782644 
L 153.885812 127.941039 
L 155.337257 143.780463 
L 156.656752 93.336757 
L 158.020231 125.535812 
L 159.38371 105.284221 
L 160.659222 123.179792 
L 162.066684 97.806482 
L 163.38618 119.831537 
L 164.661692 125.24841 
L 166.113137 93.985477 
L 167.344666 82.167722 
L 168.664162 118.305416 
L 170.027641 117.630519 
L 171.391119 171.008726 
L 172.666632 203.581727 
L 174.074094 75.273335 
L 175.437572 140.385919 
L 176.669101 128.757107 
L 178.120547 144.989643 
L 179.440042 83.581932 
L 180.671571 106.046492 
L 182.166999 98.042228 
L 183.442512 88.226714 
L 184.805991 102.410928 
L 186.125486 133.859593 
L 187.444982 118.006116 
L 188.80846 131.022039 
L 190.171939 92.912334 
L 191.447451 101.67514 
L 192.678981 84.30538 
L 194.218392 119.176196 
L 195.449921 89.323465 
L 196.901366 145.302574 
L 197.91298 91.181223 
L 199.452391 98.462363 
L 200.859853 117.063375 
L 202.179348 97.612849 
L 203.366894 97.602861 
L 204.862323 115.808687 
L 206.225801 96.903038 
L 207.58928 126.764859 
L 208.908776 100.643459 
L 210.228271 99.203658 
L 211.59175 86.620877 
L 212.955229 100.427723 
L 214.230741 116.692243 
L 215.46227 113.608087 
L 216.913715 107.728903 
L 218.233211 131.720564 
L 219.596689 120.795109 
L 222.235681 84.020513 
L 223.643142 129.655828 
L 224.962638 118.275321 
L 226.23815 83.901907 
L 227.645612 124.778779 
L 229.009091 100.260801 
L 230.37257 89.057589 
L 231.604099 103.640413 
L 232.967578 103.275049 
L 234.24309 100.352325 
L 235.650552 101.894336 
L 236.970047 108.759499 
L 238.24556 122.10017 
L 239.697005 121.816411 
L 241.0165 87.3058 
L 242.379979 97.444739 
L 243.699475 117.177664 
L 245.01897 73.690827 
L 246.426432 97.633336 
L 249.02144 106.53753 
L 250.252969 79.432047 
L 251.748397 113.677845 
L 253.02391 111.649813 
L 254.431372 97.115924 
L 255.79485 125.021479 
L 257.026379 102.556315 
L 258.477824 96.363763 
L 259.79732 83.930788 
L 261.160799 94.957987 
L 262.524277 116.960248 
L 263.755807 107.69465 
L 265.031319 121.863626 
L 266.262848 105.314893 
L 267.80226 123.984856 
L 269.033789 120.169678 
L 270.485234 128.037834 
L 271.804729 89.356789 
L 273.168208 123.485906 
L 274.531687 86.233746 
L 275.807199 99.941777 
L 277.214661 87.25642 
L 278.534157 135.927156 
L 279.809669 118.066406 
L 281.173148 84.57388 
L 282.492643 104.001562 
L 283.812139 102.032913 
L 285.175617 112.105763 
L 286.539096 76.903976 
L 287.814609 118.281287 
L 290.585549 85.276883 
L 291.817078 79.254147 
L 293.268523 43.461818 
L 294.588019 144.171633 
L 295.819548 116.06391 
L 297.22701 119.20818 
L 298.546506 142.072233 
L 299.822018 221.498182 
L 301.22948 97.486747 
L 302.592958 125.881732 
L 303.956437 121.403328 
L 305.275933 123.702754 
L 306.595428 148.020724 
L 307.958907 135.766714 
L 309.322386 119.686982 
L 310.597898 97.025115 
L 311.961377 96.257543 
L 313.324855 111.798125 
L 314.600368 103.354427 
L 316.00783 91.074054 
L 317.327325 101.401559 
L 318.602838 88.628122 
L 320.054283 89.124904 
L 321.373778 104.694282 
L 322.737257 99.575327 
L 324.056752 80.528782 
L 325.376248 107.030388 
L 326.563794 68.319602 
L 328.015239 87.065239 
L 330.610247 91.664109 
L 332.061692 92.573951 
L 333.381188 94.345618 
L 334.744666 77.31599 
L 336.108145 107.309443 
L 337.383657 107.40516 
L 338.791119 106.495016 
L 340.110615 91.469765 
L 341.386127 101.343718 
L 342.837572 80.448109 
L 344.069101 101.531721 
L 345.388597 115.314922 
L 346.620126 99.466446 
L 348.115554 110.35074 
L 349.391067 100.360058 
L 350.798529 93.156571 
L 352.162007 91.311683 
L 353.393537 88.367004 
L 354.844982 89.185408 
L 356.164477 112.014805 
L 357.396006 103.587379 
L 358.891435 74.999623 
L 360.122964 117.148044 
L 361.398476 127.636547 
L 362.805938 98.672796 
L 364.169417 113.742992 
L 365.400946 95.323823 
L 366.852391 94.524749 
L 368.171886 122.648077 
L 369.535365 95.774348 
L 370.898844 99.507534 
L 372.174356 97.330479 
L 373.581818 108.983629 
L 373.581818 108.983629 
" style="fill:none;stroke:#ff7f0e;stroke-linecap:square;stroke-width:1.5;"/>
   </g>
   <g id="line2d_21">
    <path clip-path="url(#pd29988b9b9)" d="M 69.218182 91.023671 
L 70.977509 84.332856 
L 72.297005 90.393033 
L 73.660483 89.248019 
L 75.023962 84.339434 
L 76.299475 95.853928 
L 77.706936 83.739806 
L 79.070415 81.593318 
L 80.301944 100.98154 
L 81.753389 92.35531 
L 83.072885 108.773646 
L 84.436364 84.412679 
L 85.799842 74.48194 
L 87.031372 106.527491 
L 88.306884 106.121439 
L 89.714346 98.103936 
L 91.077824 94.368526 
L 92.309354 99.951716 
L 93.760799 91.031928 
L 95.080294 91.591805 
L 96.311823 82.423939 
L 97.807252 87.714143 
L 99.082764 78.727343 
L 100.490226 88.920166 
L 101.765738 110.445631 
L 103.085234 90.898747 
L 104.448713 77.874014 
L 105.768208 63.945702 
L 107.087704 93.973482 
L 108.451182 92.970072 
L 109.814661 81.369028 
L 111.090173 104.295299 
L 112.497635 87.813397 
L 113.861114 63.856047 
L 115.092643 104.721173 
L 116.544088 57.938241 
L 117.863584 115.441499 
L 119.095113 115.672316 
L 120.546558 99.590376 
L 121.866054 80.627995 
L 123.229532 92.674143 
L 124.549028 88.367092 
L 125.868523 72.827582 
L 127.275985 93.809142 
L 129.870993 67.734229 
L 131.278455 120.229207 
L 132.641934 77.179571 
L 134.005413 90.638052 
L 135.236942 98.906038 
L 136.60042 76.275451 
L 137.875933 62.018376 
L 139.283395 116.795463 
L 140.60289 80.946775 
L 141.878403 64.332033 
L 143.329848 139.856178 
L 144.649343 90.898517 
L 146.012822 83.379847 
L 147.332317 107.468985 
L 148.651813 81.09371 
L 149.795376 78.551773 
L 151.290804 108.525321 
L 152.654283 65.491882 
L 153.885812 58.664524 
L 155.337257 130.183629 
L 156.656752 102.311711 
L 158.020231 100.447907 
L 159.38371 87.164152 
L 160.659222 100.437293 
L 162.066684 89.874289 
L 163.38618 72.088987 
L 164.661692 62.160054 
L 166.113137 119.785399 
L 167.344666 118.127219 
L 168.664162 112.120506 
L 170.027641 72.73357 
L 171.391119 108.800395 
L 172.666632 94.152054 
L 174.074094 122.186739 
L 175.437572 117.245933 
L 176.669101 89.734646 
L 178.120547 87.014539 
L 179.440042 133.769144 
L 180.671571 96.889952 
L 182.166999 108.486997 
L 183.442512 99.849311 
L 184.805991 105.518556 
L 186.125486 77.850611 
L 187.444982 104.900522 
L 188.80846 81.305712 
L 190.171939 110.190575 
L 191.447451 92.617486 
L 192.678981 101.292551 
L 194.218392 88.160871 
L 195.449921 126.747227 
L 196.901366 99.055927 
L 197.91298 108.618511 
L 199.452391 117.901177 
L 200.859853 117.616331 
L 202.179348 87.883666 
L 203.366894 100.959414 
L 204.862323 95.314137 
L 206.225801 105.99577 
L 207.58928 103.672086 
L 208.908776 91.073101 
L 210.228271 84.112884 
L 211.59175 102.000746 
L 212.955229 101.810579 
L 214.230741 97.277086 
L 215.46227 94.526756 
L 216.913715 99.65543 
L 218.233211 89.697453 
L 219.596689 77.324164 
L 220.916185 98.426955 
L 222.235681 106.128323 
L 223.643142 69.023618 
L 224.962638 80.903328 
L 226.23815 100.881234 
L 227.645612 73.386827 
L 229.009091 92.930878 
L 230.37257 103.634096 
L 231.604099 84.741633 
L 232.967578 104.814376 
L 234.24309 99.454322 
L 235.650552 95.824062 
L 236.970047 75.059029 
L 238.24556 90.360875 
L 239.697005 87.434916 
L 241.0165 104.195312 
L 242.379979 98.890259 
L 243.699475 93.204521 
L 245.01897 95.309623 
L 246.426432 100.171805 
L 247.701944 103.7658 
L 249.02144 82.40202 
L 250.252969 111.241396 
L 251.748397 84.670573 
L 253.02391 82.288462 
L 254.431372 83.873862 
L 255.79485 103.489334 
L 257.026379 97.008875 
L 258.477824 95.329127 
L 259.79732 83.619273 
L 261.160799 92.833201 
L 262.524277 97.978959 
L 263.755807 86.644746 
L 265.031319 82.546594 
L 266.262848 84.495248 
L 267.80226 87.932019 
L 269.033789 80.646216 
L 270.485234 80.886872 
L 271.804729 107.564274 
L 273.168208 75.028153 
L 274.531687 102.645881 
L 275.807199 90.690696 
L 277.214661 90.176837 
L 278.534157 66.063496 
L 279.809669 84.989985 
L 281.173148 108.936146 
L 282.492643 92.461928 
L 283.812139 91.549138 
L 285.175617 87.46013 
L 286.539096 107.301292 
L 287.814609 83.30696 
L 289.22207 87.363703 
L 290.585549 92.553241 
L 291.817078 104.84461 
L 293.268523 121.187692 
L 295.819548 96.559161 
L 297.22701 95.282793 
L 298.546506 95.057579 
L 299.822018 108.952354 
L 301.22948 125.729296 
L 302.592958 93.030547 
L 303.956437 112.571487 
L 305.275933 107.684794 
L 306.595428 116.683339 
L 307.958907 103.17596 
L 309.322386 102.317829 
L 310.597898 110.311013 
L 311.961377 96.065097 
L 313.324855 102.086936 
L 314.600368 92.221904 
L 316.00783 98.627179 
L 317.327325 93.752314 
L 318.602838 100.725179 
L 320.054283 97.302972 
L 321.373778 88.70546 
L 322.737257 86.689379 
L 324.056752 97.022231 
L 325.376248 90.879626 
L 326.563794 94.258688 
L 328.015239 88.692491 
L 329.378718 85.60245 
L 330.610247 76.430322 
L 332.061692 88.79559 
L 333.381188 90.625737 
L 334.744666 86.678178 
L 336.108145 103.201005 
L 337.383657 96.171437 
L 338.791119 82.677495 
L 340.110615 75.043808 
L 341.386127 80.537939 
L 342.837572 75.086723 
L 344.069101 82.366109 
L 345.388597 123.45135 
L 346.620126 78.760246 
L 348.115554 79.593297 
L 349.391067 77.196936 
L 350.798529 116.00225 
L 352.162007 97.016355 
L 353.393537 94.35757 
L 354.844982 98.34669 
L 356.164477 124.74731 
L 357.396006 84.349839 
L 358.891435 88.79328 
L 360.122964 119.349414 
L 361.398476 92.418399 
L 362.805938 90.473441 
L 364.169417 79.410981 
L 365.400946 89.810474 
L 366.852391 94.816758 
L 368.171886 87.040401 
L 369.535365 98.161111 
L 370.898844 91.663341 
L 372.174356 99.557296 
L 373.581818 88.793672 
L 373.581818 88.793672 
" style="fill:none;stroke:#2ca02c;stroke-linecap:square;stroke-width:1.5;"/>
   </g>
   <g id="patch_3">
    <path d="M 54 230.4 
L 54 34.56 
" style="fill:none;stroke:#000000;stroke-linecap:square;stroke-linejoin:miter;stroke-width:0.8;"/>
   </g>
   <g id="patch_4">
    <path d="M 388.8 230.4 
L 388.8 34.56 
" style="fill:none;stroke:#000000;stroke-linecap:square;stroke-linejoin:miter;stroke-width:0.8;"/>
   </g>
   <g id="patch_5">
    <path d="M 54 230.4 
L 388.8 230.4 
" style="fill:none;stroke:#000000;stroke-linecap:square;stroke-linejoin:miter;stroke-width:0.8;"/>
   </g>
   <g id="patch_6">
    <path d="M 54 34.56 
L 388.8 34.56 
" style="fill:none;stroke:#000000;stroke-linecap:square;stroke-linejoin:miter;stroke-width:0.8;"/>
   </g>
   <g id="legend_1">
    <g id="patch_7">
     <path d="M 61 225.4 
L 118.128125 225.4 
Q 120.128125 225.4 120.128125 223.4 
L 120.128125 180.365625 
Q 120.128125 178.365625 118.128125 178.365625 
L 61 178.365625 
Q 59 178.365625 59 180.365625 
L 59 223.4 
Q 59 225.4 61 225.4 
z
" style="fill:#ffffff;opacity:0.8;stroke:#cccccc;stroke-linejoin:miter;"/>
    </g>
    <g id="line2d_22">
     <path d="M 63 186.464062 
L 83 186.464062 
" style="fill:none;stroke:#1f77b4;stroke-linecap:square;stroke-width:1.5;"/>
    </g>
    <g id="line2d_23"/>
    <g id="text_19">
     <!-- SMB -->
     <defs>
      <path d="M 53.515625 70.515625 
L 53.515625 60.890625 
Q 47.90625 63.578125 42.921875 64.890625 
Q 37.9375 66.21875 33.296875 66.21875 
Q 25.25 66.21875 20.875 63.09375 
Q 16.5 59.96875 16.5 54.203125 
Q 16.5 49.359375 19.40625 46.890625 
Q 22.3125 44.4375 30.421875 42.921875 
L 36.375 41.703125 
Q 47.40625 39.59375 52.65625 34.296875 
Q 57.90625 29 57.90625 20.125 
Q 57.90625 9.515625 50.796875 4.046875 
Q 43.703125 -1.421875 29.984375 -1.421875 
Q 24.8125 -1.421875 18.96875 -0.25 
Q 13.140625 0.921875 6.890625 3.21875 
L 6.890625 13.375 
Q 12.890625 10.015625 18.65625 8.296875 
Q 24.421875 6.59375 29.984375 6.59375 
Q 38.421875 6.59375 43.015625 9.90625 
Q 47.609375 13.234375 47.609375 19.390625 
Q 47.609375 24.75 44.3125 27.78125 
Q 41.015625 30.8125 33.5 32.328125 
L 27.484375 33.5 
Q 16.453125 35.6875 11.515625 40.375 
Q 6.59375 45.0625 6.59375 53.421875 
Q 6.59375 63.09375 13.40625 68.65625 
Q 20.21875 74.21875 32.171875 74.21875 
Q 37.3125 74.21875 42.625 73.28125 
Q 47.953125 72.359375 53.515625 70.515625 
z
" id="DejaVuSans-83"/>
      <path d="M 9.8125 72.90625 
L 24.515625 72.90625 
L 43.109375 23.296875 
L 61.8125 72.90625 
L 76.515625 72.90625 
L 76.515625 0 
L 66.890625 0 
L 66.890625 64.015625 
L 48.09375 14.015625 
L 38.1875 14.015625 
L 19.390625 64.015625 
L 19.390625 0 
L 9.8125 0 
z
" id="DejaVuSans-77"/>
      <path d="M 19.671875 34.8125 
L 19.671875 8.109375 
L 35.5 8.109375 
Q 43.453125 8.109375 47.28125 11.40625 
Q 51.125 14.703125 51.125 21.484375 
Q 51.125 28.328125 47.28125 31.5625 
Q 43.453125 34.8125 35.5 34.8125 
z
M 19.671875 64.796875 
L 19.671875 42.828125 
L 34.28125 42.828125 
Q 41.5 42.828125 45.03125 45.53125 
Q 48.578125 48.25 48.578125 53.8125 
Q 48.578125 59.328125 45.03125 62.0625 
Q 41.5 64.796875 34.28125 64.796875 
z
M 9.8125 72.90625 
L 35.015625 72.90625 
Q 46.296875 72.90625 52.390625 68.21875 
Q 58.5 63.53125 58.5 54.890625 
Q 58.5 48.1875 55.375 44.234375 
Q 52.25 40.28125 46.1875 39.3125 
Q 53.46875 37.75 57.5 32.78125 
Q 61.53125 27.828125 61.53125 20.40625 
Q 61.53125 10.640625 54.890625 5.3125 
Q 48.25 0 35.984375 0 
L 9.8125 0 
z
" id="DejaVuSans-66"/>
     </defs>
     <g transform="translate(91 189.964062)scale(0.1 -0.1)">
      <use xlink:href="#DejaVuSans-83"/>
      <use x="63.476562" xlink:href="#DejaVuSans-77"/>
      <use x="149.755859" xlink:href="#DejaVuSans-66"/>
     </g>
    </g>
    <g id="line2d_24">
     <path d="M 63 201.142187 
L 83 201.142187 
" style="fill:none;stroke:#ff7f0e;stroke-linecap:square;stroke-width:1.5;"/>
    </g>
    <g id="line2d_25"/>
    <g id="text_20">
     <!-- HML -->
     <defs>
      <path d="M 9.8125 72.90625 
L 19.671875 72.90625 
L 19.671875 43.015625 
L 55.515625 43.015625 
L 55.515625 72.90625 
L 65.375 72.90625 
L 65.375 0 
L 55.515625 0 
L 55.515625 34.71875 
L 19.671875 34.71875 
L 19.671875 0 
L 9.8125 0 
z
" id="DejaVuSans-72"/>
      <path d="M 9.8125 72.90625 
L 19.671875 72.90625 
L 19.671875 8.296875 
L 55.171875 8.296875 
L 55.171875 0 
L 9.8125 0 
z
" id="DejaVuSans-76"/>
     </defs>
     <g transform="translate(91 204.642187)scale(0.1 -0.1)">
      <use xlink:href="#DejaVuSans-72"/>
      <use x="75.195312" xlink:href="#DejaVuSans-77"/>
      <use x="161.474609" xlink:href="#DejaVuSans-76"/>
     </g>
    </g>
    <g id="line2d_26">
     <path d="M 63 215.820312 
L 83 215.820312 
" style="fill:none;stroke:#2ca02c;stroke-linecap:square;stroke-width:1.5;"/>
    </g>
    <g id="line2d_27"/>
    <g id="text_21">
     <!-- MOM -->
     <defs>
      <path d="M 39.40625 66.21875 
Q 28.65625 66.21875 22.328125 58.203125 
Q 16.015625 50.203125 16.015625 36.375 
Q 16.015625 22.609375 22.328125 14.59375 
Q 28.65625 6.59375 39.40625 6.59375 
Q 50.140625 6.59375 56.421875 14.59375 
Q 62.703125 22.609375 62.703125 36.375 
Q 62.703125 50.203125 56.421875 58.203125 
Q 50.140625 66.21875 39.40625 66.21875 
z
M 39.40625 74.21875 
Q 54.734375 74.21875 63.90625 63.9375 
Q 73.09375 53.65625 73.09375 36.375 
Q 73.09375 19.140625 63.90625 8.859375 
Q 54.734375 -1.421875 39.40625 -1.421875 
Q 24.03125 -1.421875 14.8125 8.828125 
Q 5.609375 19.09375 5.609375 36.375 
Q 5.609375 53.65625 14.8125 63.9375 
Q 24.03125 74.21875 39.40625 74.21875 
z
" id="DejaVuSans-79"/>
     </defs>
     <g transform="translate(91 219.320312)scale(0.1 -0.1)">
      <use xlink:href="#DejaVuSans-77"/>
      <use x="86.279297" xlink:href="#DejaVuSans-79"/>
      <use x="164.990234" xlink:href="#DejaVuSans-77"/>
     </g>
    </g>
   </g>
  </g>
 </g>
 <defs>
  <clipPath id="pd29988b9b9">
   <rect height="195.84" width="334.8" x="54" y="34.56"/>
  </clipPath>
 </defs>
</svg>
